<svg xmlns="http://www.w3.org/2000/svg" viewBox="0 0 680.08 74.68"><path d="M30.12 74.48c-5.57 0-10.9-.95-15.99-2.84S4.33 66.84 0 62.92l7.63-9.08c3.51 3.03 7.05 5.35 10.62 6.96 3.58 1.62 7.63 2.42 12.17 2.42 3.92 0 7.03-.83 9.33-2.48s3.46-3.85 3.46-6.6v-.21c0-1.31-.22-2.46-.67-3.46-.45-1-1.28-1.94-2.48-2.84-1.21-.89-2.86-1.72-4.96-2.48s-4.84-1.51-8.22-2.27c-3.86-.89-7.29-1.91-10.29-3.04-3-1.13-5.52-2.51-7.55-4.13-2.03-1.61-3.59-3.59-4.65-5.93-1.07-2.34-1.6-5.16-1.6-8.46v-.21c0-3.09.61-5.93 1.84-8.51S7.55 7.82 9.69 6c2.15-1.82 4.73-3.25 7.75-4.28C20.46.69 23.76.17 27.33.17c5.29 0 10.06.77 14.29 2.32 4.23 1.55 8.2 3.8 11.91 6.76l-6.81 9.59c-3.3-2.41-6.57-4.25-9.8-5.52-3.23-1.27-6.5-1.91-9.8-1.91-3.71 0-6.6.83-8.66 2.48s-3.09 3.68-3.09 6.09v.21c0 1.38.24 2.6.72 3.66.48 1.07 1.36 2.03 2.64 2.89 1.27.86 3.03 1.67 5.27 2.42 2.24.76 5.08 1.55 8.53 2.37 3.79.96 7.15 2.03 10.08 3.2 2.93 1.17 5.36 2.6 7.29 4.28 1.93 1.69 3.4 3.65 4.4 5.88 1 2.24 1.5 4.83 1.5 7.79v.21c0 3.37-.63 6.4-1.89 9.08a19.478 19.478 0 0 1-5.27 6.81c-2.25 1.86-4.95 3.27-8.11 4.23-3.16.98-6.63 1.47-10.41 1.47zM70.76 1.24H82.5l38.6 49.93V1.24h12.58v72.21h-10.6L83.35 22.07v51.37H70.76V1.24zM177.83.72h11.76l31.77 72.72h-13.41l-7.32-17.43h-34.14l-7.43 17.43h-13L177.83.72zm18.16 44.05l-12.48-28.88-12.38 28.88h24.86zM233.74 1.24h28.47c4.19 0 7.99.57 11.4 1.7 3.4 1.13 6.29 2.77 8.67 4.9 2.37 2.13 4.19 4.68 5.47 7.63 1.27 2.96 1.91 6.26 1.91 9.9v.21c0 4.06-.76 7.62-2.28 10.68-1.52 3.06-3.58 5.62-6.2 7.69s-5.69 3.63-9.2 4.69c-3.52 1.07-7.27 1.6-11.27 1.6h-14.37v23.21h-12.58V1.24zm27.39 37.55c4.83 0 8.64-1.21 11.44-3.62 2.79-2.42 4.19-5.52 4.19-9.32v-.21c0-4.28-1.42-7.51-4.24-9.68-2.83-2.17-6.62-3.26-11.39-3.26h-14.8v26.1h14.8zM328.54 74.48c-5.78 0-10.99-.96-15.63-2.89-4.64-1.92-9.13-4.81-13.46-8.66l3.51-4.02c1.99 1.86 3.97 3.46 5.93 4.8 1.96 1.34 3.97 2.44 6.03 3.3 2.06.86 4.23 1.51 6.5 1.96 2.27.45 4.75.67 7.43.67s5.16-.36 7.43-1.08c2.27-.72 4.19-1.72 5.78-2.99a13.83 13.83 0 0 0 3.71-4.54c.89-1.75 1.34-3.66 1.34-5.73v-.21c0-1.92-.29-3.64-.88-5.16-.58-1.51-1.65-2.89-3.2-4.13-1.55-1.24-3.63-2.35-6.24-3.35-2.61-1-5.98-1.91-10.11-2.73-4.33-.89-8.05-1.94-11.14-3.15-3.09-1.2-5.62-2.61-7.58-4.23-1.96-1.62-3.39-3.49-4.28-5.62-.89-2.13-1.34-4.57-1.34-7.32v-.21c0-2.68.58-5.17 1.75-7.48 1.17-2.3 2.78-4.31 4.85-6.03 2.06-1.72 4.5-3.06 7.32-4.02 2.82-.96 5.91-1.44 9.28-1.44 5.23 0 9.75.72 13.56 2.17 3.82 1.44 7.55 3.65 11.19 6.6l-3.4 4.23c-3.44-2.96-6.9-5.05-10.37-6.29-3.47-1.24-7.2-1.86-11.19-1.86-2.68 0-5.11.36-7.27 1.08-2.17.72-4.02 1.7-5.57 2.94s-2.73 2.68-3.56 4.33-1.24 3.4-1.24 5.26v.21c0 1.93.29 3.66.88 5.21.58 1.55 1.65 2.96 3.2 4.23 1.55 1.27 3.7 2.42 6.45 3.46 2.75 1.03 6.26 2 10.52 2.89 8.39 1.72 14.44 4.14 18.15 7.27 3.71 3.13 5.57 7.34 5.57 12.64v.21c0 2.89-.6 5.55-1.81 7.99-1.2 2.44-2.85 4.52-4.95 6.24-2.1 1.72-4.61 3.06-7.53 4.02-2.91.94-6.12 1.43-9.63 1.43zM403.12 74.68c-5.5 0-10.47-1.02-14.91-3.04-4.44-2.03-8.24-4.75-11.4-8.15-3.16-3.4-5.61-7.34-7.32-11.81-1.72-4.47-2.58-9.18-2.58-14.13v-.21c0-4.95.88-9.68 2.63-14.18s4.21-8.47 7.38-11.91c3.16-3.44 6.98-6.17 11.45-8.2C392.84 1.02 397.82 0 403.32 0c5.43 0 10.38 1.02 14.85 3.04 4.47 2.03 8.29 4.75 11.45 8.15 3.16 3.4 5.6 7.34 7.32 11.81 1.72 4.47 2.58 9.18 2.58 14.13.07.07.07.14 0 .21 0 4.95-.88 9.68-2.63 14.18s-4.21 8.48-7.38 11.91c-3.16 3.44-7 6.17-11.5 8.2-4.49 2.04-9.46 3.05-14.89 3.05zm.2-4.85c4.47 0 8.58-.84 12.33-2.53 3.75-1.68 6.98-3.99 9.7-6.91 2.72-2.92 4.83-6.34 6.34-10.26 1.51-3.92 2.27-8.11 2.27-12.58v-.21c0-4.47-.77-8.68-2.32-12.64-1.55-3.95-3.68-7.39-6.4-10.32-2.72-2.92-5.97-5.24-9.75-6.96-3.78-1.72-7.91-2.58-12.38-2.58-4.47 0-8.58.84-12.33 2.53s-6.98 3.99-9.7 6.91c-2.72 2.92-4.83 6.34-6.34 10.26-1.51 3.92-2.27 8.12-2.27 12.58v.21c0 4.47.77 8.68 2.32 12.64 1.55 3.96 3.68 7.39 6.4 10.32 2.72 2.92 5.96 5.24 9.75 6.96 3.79 1.73 7.91 2.58 12.38 2.58zM486.26 74.58c-4.33 0-8.3-.67-11.91-2.01-3.61-1.34-6.74-3.33-9.39-5.98-2.65-2.65-4.69-5.9-6.14-9.75-1.44-3.85-2.17-8.32-2.17-13.41V1.24h5.36v41.67c0 8.6 2.15 15.22 6.45 19.86 4.3 4.64 10.3 6.96 18 6.96 3.64 0 6.95-.55 9.9-1.65 2.96-1.1 5.48-2.75 7.58-4.95 2.1-2.2 3.71-4.95 4.85-8.25s1.7-7.12 1.7-11.45V1.24h5.36v41.57c0 5.16-.72 9.71-2.17 13.67-1.44 3.96-3.47 7.27-6.09 9.95-2.61 2.68-5.72 4.71-9.33 6.09-3.6 1.37-7.6 2.06-12 2.06zM536.18 1.24h5.05l49.82 62.82V1.24h5.16v72.21h-4.02L541.34 9.28v64.16h-5.16V1.24zM617.67 1.24h24.04c5.64 0 10.81.91 15.52 2.73 4.71 1.82 8.77 4.35 12.17 7.58 3.4 3.23 6.03 7.03 7.89 11.4 1.86 4.37 2.79 9.1 2.79 14.18v.21c0 5.09-.93 9.83-2.79 14.23-1.86 4.4-4.49 8.22-7.89 11.45-3.4 3.23-7.46 5.78-12.17 7.63-4.71 1.86-9.89 2.79-15.52 2.79h-24.04V1.24zm24.04 67.36c5.02 0 9.56-.81 13.62-2.43s7.5-3.83 10.32-6.62c2.82-2.79 5-6.07 6.55-9.83 1.55-3.76 2.32-7.81 2.32-12.16v-.21c0-4.28-.77-8.31-2.32-12.11-1.55-3.79-3.73-7.11-6.55-9.94-2.82-2.83-6.26-5.07-10.32-6.73-4.06-1.66-8.6-2.48-13.62-2.48h-18.67V68.6h18.67z"/></svg>